# xmcd
#
# Track frame offsets:
#	150
#	13431
#	24761
#	35883
#	46660
#	60067
#	73392
#	91588
#	107166
#	117216
#	128362
#	142773
#	158908
#	169107
#	181099
#	197853
#	216114
#	231245
#
# Disc length: 3228 seconds
#
# Revision: 0
# Processed by: cddbd v1.5.2PL0 Copyright (c) Steve Scherf et al.
# Submitted via: dBpowerAMP V4.0
#
DISCID=e80c9a12
DTITLE=Jesse Walker - Classic Country
DYEAR=2002
DGENRE=Country
TTITLE0=Devil Woman
TTITLE1=Please Help Me I'm Fallin In Love With You
TTITLE2=Send Me The Pillow
TTITLE3=Pick Me Up On Your Way Down
TTITLE4=Heartaches By The Numbers
TTITLE5=Don't Be Angry
TTITLE6=Farewell Party
TTITLE7=I Want To Dance With You
TTITLE8=Polka Queen
TTITLE9=San Antone Rose
TTITLE10=Cold Hard Facts Of Life
TTITLE11=If That's The Way You Want It
TTITLE12=The Gold Rush Is Over
TTITLE13=Take These Chains
TTITLE14=Don't Let Your Babies Grow Up To Be Cowboys
TTITLE15=Keeper Of The Stars
TTITLE16=Why Me Lord
TTITLE17=America The Beautiful
EXTD=Telstar Records, for more info. (608) 255-2944
EXTT0=
EXTT1=
EXTT2=
EXTT3=
EXTT4=
EXTT5=
EXTT6=
EXTT7=
EXTT8=
EXTT9=
EXTT10=
EXTT11=
EXTT12=
EXTT13=
EXTT14=
EXTT15=
EXTT16=
EXTT17=
PLAYORDER=
